<?xml version="1.0" standalone="no"?>
<!DOCTYPE svg PUBLIC "-//W3C//DTD SVG 20010904//EN"
 "http://www.w3.org/TR/2001/REC-SVG-20010904/DTD/svg10.dtd">
<svg version="1.0" xmlns="http://www.w3.org/2000/svg"
 width="568.000000pt" height="568.000000pt" viewBox="0 0 568.000000 568.000000"
 preserveAspectRatio="xMidYMid meet">
<metadata>
Created by potrace 1.14, written by Peter Selinger 2001-2017
</metadata>
<g transform="translate(0.000000,568.000000) scale(0.100000,-0.100000)"
fill="#000000" stroke="none">
<path d="M2595 5663 c-451 -37 -928 -204 -1309 -457 -194 -129 -287 -206 -456
-376 -438 -437 -726 -1021 -799 -1620 -21 -172 -22 -197 -22 -384 1 -502 119
-953 361 -1380 435 -768 1181 -1281 2065 -1421 140 -22 498 -31 665 -16 798
71 1529 480 2017 1129 292 390 473 835 545 1342 17 127 17 582 -1 710 -91 650
-361 1200 -811 1650 -457 458 -1040 740 -1680 814 -122 14 -451 20 -575 9z
m1173 -1747 c260 -133 412 -552 412 -1134 0 -259 -35 -518 -97 -717 -32 -103
-119 -282 -176 -363 -218 -312 -586 -469 -1050 -449 -584 25 -921 276 -1044
777 -13 55 -17 172 -22 750 l-6 685 -23 50 c-46 99 -103 135 -229 143 l-83 5
0 128 0 129 535 0 534 0 4 -902 c4 -1011 1 -966 77 -1126 89 -187 257 -282
499 -282 121 0 217 20 306 64 285 140 437 513 422 1036 -4 155 -9 201 -31 283
-49 188 -149 359 -270 459 -56 47 -204 128 -233 128 -36 0 4 176 57 248 63 87
147 124 275 119 74 -3 99 -8 143 -31z"/>
</g>
</svg>
